<?xml version="1.0" encoding="UTF-8"?>
<svg id="Ebene_2" xmlns="http://www.w3.org/2000/svg" viewBox="0 0 529.99 174.52">
  <defs>
    <style>
      .cls-1 {
        fill: #fff;
      }

      .cls-2 {
        stroke: #fff;
      }

      .cls-2,
      .cls-3,
      .cls-4 {
        fill: none;
        stroke-miterlimit: 10;
      }

      .cls-5,
      .cls-3,
      .cls-4 {
        isolation: isolate;
      }

      .cls-6 {
        fill: #f15a24;
      }

      .cls-3 {
        stroke-width: 4px;
      }

      .cls-3,
      .cls-4 {
        opacity: .5;
        stroke: #000;
      }

      .cls-4 {
        stroke-linecap: round;
        stroke-width: 16px;
      }
    </style>
  </defs>
  <g id="Logo">
    <g id="Welle">
      <rect id="Rahmen" class="cls-2" x="17.04" y="19.69" width="496.97" height="139.41" />
      <circle class="cls-6" cx="119.73" cy="87.26" r="87.26" />
      <path id="Welle-2" class="cls-4"
        d="m521.99,57.47c-60.66,1.06-140.47,56.4-173.46,56.4s-58.53-51.08-85.13-51.08-45.76,24.48-63.85,24.48c-21.28,0-46.83-49.43-78.75-50.02-30-.55-51.08,50.02-112.8,50.02" />
      <circle class="cls-3" cx="119.73" cy="87.26" r="79.81" />
    </g>
    <g id="Ebene_1-2">
      <g class="cls-5">
        <g class="cls-5">
          <path class="cls-1"
            d="m102.68,92.72l14.64-32.92h6.55v49.87h-6.83v-37.35l.34,2.2-12.28,28.23h-4.87l-12.28-27.54.34-2.88v37.35h-6.83v-49.87h6.55l14.65,32.92Z" />
          <path class="cls-1"
            d="m151.21,110.17c-2.42,0-4.7-.23-6.84-.69-2.14-.46-4.14-1.14-6-2.06-1.86-.91-3.61-2.06-5.23-3.43l4.36-5.35c1.9,1.65,3.99,2.88,6.28,3.7,2.29.82,4.77,1.24,7.44,1.24,3.61,0,6.41-.67,8.4-2.02,1.99-1.35,2.98-3.24,2.98-5.66v-.03c0-1.9-.5-3.35-1.51-4.36-1.01-1.01-2.33-1.75-3.96-2.25-1.63-.49-3.42-.9-5.37-1.22-1.88-.32-3.77-.7-5.68-1.13-1.91-.43-3.66-1.11-5.26-2.04-1.6-.93-2.89-2.26-3.86-4-.97-1.74-1.46-4.06-1.46-6.96v-.03c0-4.64,1.54-8.24,4.63-10.79,3.09-2.55,7.44-3.82,13.07-3.82,2.68,0,5.29.43,7.85,1.29,2.56.86,5.05,2.17,7.48,3.93l-3.98,5.56c-1.9-1.42-3.79-2.47-5.68-3.16-1.89-.69-3.78-1.03-5.68-1.03-3.41,0-6.05.68-7.94,2.04-1.89,1.36-2.83,3.29-2.83,5.78v.03c0,1.88.55,3.3,1.65,4.29,1.1.98,2.53,1.71,4.3,2.18,1.77.47,3.68.91,5.71,1.32,1.83.37,3.66.81,5.49,1.32,1.83.51,3.49,1.26,4.99,2.23,1.5.97,2.7,2.3,3.6,4,.9,1.69,1.35,3.9,1.35,6.62v.07c0,4.6-1.6,8.15-4.8,10.67-3.2,2.51-7.71,3.77-13.51,3.77Z" />
          <path class="cls-1"
            d="m257.26,92.72l14.64-32.92h6.55v49.87h-6.83v-37.35l.34,2.2-12.28,28.23h-4.87l-12.28-27.54.34-2.88v37.35h-6.83v-49.87h6.55l14.65,32.92Z" />
        </g>
      </g>
      <g class="cls-5">
        <g class="cls-5">
          <path class="cls-1"
            d="m288.93,109.66v-34.91h4.9v34.91h-4.9Zm2.38-30.25v-4.66h20.05v4.66h-20.05Zm0,15.25v-4.66h17.41v4.66h-17.41Zm0,15v-4.66h20.05v4.66h-20.05Z" />
        </g>
        <g class="cls-5">
          <path class="cls-1"
            d="m318.32,109.66v-34.91h4.9v34.91h-4.9Zm3.31,0v-4.66h7.9c2.58,0,4.57-.67,5.99-2,1.42-1.34,2.12-3.22,2.12-5.65v-10.27c0-2.43-.71-4.32-2.12-5.65-1.42-1.34-3.41-2-5.99-2h-7.9v-4.66h7.75c4.23,0,7.49,1.09,9.81,3.28,2.31,2.18,3.47,5.26,3.47,9.23v9.89c0,2.64-.52,4.89-1.56,6.76-1.04,1.87-2.55,3.29-4.54,4.27-1.99.98-4.39,1.48-7.2,1.48h-7.73Z" />
          <path class="cls-1" d="m355,74.75v34.91h-4.9v-34.91h4.9Z" />
        </g>
        <g class="cls-5">
          <path class="cls-1"
            d="m359.8,109.66l12.87-34.91h4.18l12.87,34.91h-5.28l-9.67-28.16-9.67,28.16h-5.28Zm5.93-7.66v-4.66h18.37v4.66h-18.37Z" />
        </g>
        <g class="cls-5">
          <path class="cls-1" d="m389.23,79.41v-4.66h24.63v4.66h-24.63Zm9.87,30.25v-32.05h4.9v32.05h-4.9Z" />
        </g>
        <g class="cls-5">
          <path class="cls-1" d="m423.56,74.75v34.91h-4.9v-34.91h4.9Z" />
        </g>
        <g class="cls-5">
          <path class="cls-1"
            d="m443.75,110.02c-2.46,0-4.62-.53-6.46-1.6-1.84-1.06-3.27-2.56-4.29-4.5-1.02-1.94-1.52-4.19-1.52-6.77v-9.89c0-2.59.51-4.85,1.52-6.78,1.02-1.93,2.45-3.42,4.29-4.49,1.84-1.06,3.99-1.6,6.46-1.6s4.62.53,6.46,1.6c1.84,1.06,3.27,2.56,4.29,4.49,1.02,1.93,1.52,4.19,1.52,6.78v9.89c0,2.58-.51,4.83-1.52,6.77-1.02,1.94-2.45,3.44-4.29,4.5-1.84,1.06-3.99,1.6-6.46,1.6Zm0-4.83c2.19,0,3.95-.72,5.27-2.16s1.98-3.34,1.98-5.71v-10.23c0-2.38-.66-4.29-1.98-5.73-1.32-1.43-3.08-2.15-5.27-2.15s-3.93.72-5.26,2.15c-1.33,1.43-1.99,3.34-1.99,5.73v10.23c0,2.37.66,4.27,1.99,5.71,1.33,1.44,3.08,2.16,5.26,2.16Z" />
        </g>
        <g class="cls-5">
          <path class="cls-1"
            d="m463.46,109.64v-34.88h4.44l17.07,26.99-.58.62v-27.61h4.85v34.88h-4.49l-17.02-26.58.58-.62v27.2h-4.85Z" />
        </g>
      </g>
      <g class="cls-5">
        <g class="cls-5">
          <path class="cls-1"
            d="m79.2,141.4v-17.22h2.43l5.52,8.71c1.28,2.02,2.27,3.83,3.09,5.59l.05-.03c-.2-2.3-.26-4.39-.26-7.08v-7.2h2.09v17.22h-2.25l-5.47-8.74c-1.2-1.92-2.35-3.88-3.22-5.75l-.08.03c.13,2.17.18,4.24.18,7.1v7.36h-2.09Z" />
          <path class="cls-1"
            d="m98.71,135.63c.05,3.04,1.99,4.29,4.24,4.29,1.61,0,2.58-.28,3.42-.64l.38,1.61c-.79.36-2.15.77-4.11.77-3.81,0-6.08-2.5-6.08-6.23s2.2-6.67,5.8-6.67c4.04,0,5.11,3.55,5.11,5.82,0,.46-.05.82-.08,1.05h-8.68Zm6.59-1.61c.03-1.43-.59-3.65-3.12-3.65-2.27,0-3.27,2.09-3.45,3.65h6.56Z" />
          <path class="cls-1"
            d="m122.13,138.03c0,1.28.03,2.4.1,3.37h-1.99l-.13-2.02h-.05c-.59,1-1.89,2.3-4.09,2.3-1.94,0-4.27-1.07-4.27-5.42v-7.23h2.25v6.85c0,2.35.71,3.93,2.76,3.93,1.51,0,2.55-1.05,2.96-2.04.13-.33.2-.74.2-1.15v-7.59h2.25v8.99Z" />
          <path class="cls-1"
            d="m128.65,135.63c.05,3.04,1.99,4.29,4.24,4.29,1.61,0,2.58-.28,3.42-.64l.38,1.61c-.79.36-2.15.77-4.11.77-3.81,0-6.08-2.5-6.08-6.23s2.2-6.67,5.8-6.67c4.04,0,5.11,3.55,5.11,5.82,0,.46-.05.82-.08,1.05h-8.68Zm6.59-1.61c.03-1.43-.59-3.65-3.12-3.65-2.27,0-3.27,2.09-3.45,3.65h6.56Z" />
        </g>
        <g class="cls-5">
          <path class="cls-1"
            d="m150.13,141.4l-4.37-17.22h2.35l2.04,8.71c.51,2.15.97,4.29,1.28,5.95h.05c.28-1.71.82-3.75,1.4-5.98l2.3-8.68h2.32l2.09,8.74c.49,2.04.95,4.09,1.2,5.9h.05c.36-1.89.84-3.81,1.38-5.95l2.27-8.68h2.27l-4.88,17.22h-2.32l-2.17-8.97c-.54-2.2-.89-3.88-1.12-5.62h-.05c-.31,1.71-.69,3.4-1.33,5.62l-2.45,8.97h-2.32Z" />
        </g>
        <g class="cls-5">
          <path class="cls-1"
            d="m170.69,135.63c.05,3.04,1.99,4.29,4.24,4.29,1.61,0,2.58-.28,3.42-.64l.38,1.61c-.79.36-2.15.77-4.11.77-3.81,0-6.08-2.5-6.08-6.23s2.2-6.67,5.8-6.67c4.04,0,5.11,3.55,5.11,5.82,0,.46-.05.82-.08,1.05h-8.68Zm6.59-1.61c.03-1.43-.59-3.65-3.12-3.65-2.27,0-3.27,2.09-3.45,3.65h6.56Z" />
          <path class="cls-1"
            d="m194.41,129.04c-.05.89-.1,1.89-.1,3.4v7.18c0,2.83-.56,4.57-1.76,5.65-1.2,1.12-2.94,1.48-4.5,1.48s-3.12-.36-4.11-1.02l.56-1.71c.82.51,2.09.97,3.63.97,2.3,0,3.98-1.2,3.98-4.32v-1.38h-.05c-.69,1.15-2.02,2.07-3.93,2.07-3.06,0-5.26-2.61-5.26-6.03,0-4.19,2.73-6.56,5.57-6.56,2.15,0,3.32,1.12,3.86,2.15h.05l.1-1.87h1.97Zm-2.32,4.88c0-.38-.03-.71-.13-1.02-.41-1.3-1.51-2.38-3.14-2.38-2.15,0-3.68,1.81-3.68,4.67,0,2.43,1.23,4.44,3.65,4.44,1.38,0,2.63-.87,3.12-2.3.13-.38.18-.82.18-1.2v-2.22Z" />
          <path class="cls-1"
            d="m200.82,135.63c.05,3.04,1.99,4.29,4.24,4.29,1.61,0,2.58-.28,3.42-.64l.38,1.61c-.79.36-2.15.77-4.11.77-3.81,0-6.08-2.5-6.08-6.23s2.2-6.67,5.8-6.67c4.04,0,5.11,3.55,5.11,5.82,0,.46-.05.82-.08,1.05h-8.68Zm6.59-1.61c.03-1.43-.59-3.65-3.12-3.65-2.27,0-3.27,2.09-3.45,3.65h6.56Z" />
          <path class="cls-1"
            d="m222.1,135.63c.05,3.04,1.99,4.29,4.24,4.29,1.61,0,2.58-.28,3.42-.64l.38,1.61c-.79.36-2.15.77-4.11.77-3.81,0-6.08-2.5-6.08-6.23s2.2-6.67,5.8-6.67c4.04,0,5.11,3.55,5.11,5.82,0,.46-.05.82-.08,1.05h-8.68Zm6.59-1.61c.03-1.43-.59-3.65-3.12-3.65-2.27,0-3.27,2.09-3.45,3.65h6.56Z" />
        </g>
        <g class="cls-5">
          <path class="cls-1"
            d="m234.66,132.38c0-1.28-.03-2.32-.1-3.35h1.99l.13,2.04h.05c.61-1.17,2.04-2.32,4.09-2.32,1.71,0,4.37,1.02,4.37,5.26v7.38h-2.25v-7.13c0-1.99-.74-3.65-2.86-3.65-1.48,0-2.63,1.05-3.01,2.3-.1.28-.15.66-.15,1.05v7.43h-2.25v-9.02Z" />
        </g>
        <g class="cls-5">
          <path class="cls-1"
            d="m252.87,125.49v3.55h3.22v1.71h-3.22v6.67c0,1.53.43,2.4,1.69,2.4.59,0,1.02-.08,1.3-.15l.1,1.69c-.43.18-1.12.31-1.99.31-1.05,0-1.89-.33-2.43-.95-.64-.66-.87-1.76-.87-3.22v-6.74h-1.92v-1.71h1.92v-2.96l2.2-.59Z" />
          <path class="cls-1"
            d="m259.84,139.1c.66.43,1.84.89,2.96.89,1.63,0,2.4-.82,2.4-1.84,0-1.07-.64-1.66-2.3-2.27-2.22-.79-3.27-2.02-3.27-3.5,0-1.99,1.61-3.63,4.27-3.63,1.25,0,2.35.36,3.04.77l-.56,1.63c-.49-.31-1.38-.71-2.53-.71-1.33,0-2.07.77-2.07,1.69,0,1.02.74,1.48,2.35,2.09,2.15.82,3.24,1.89,3.24,3.73,0,2.17-1.69,3.7-4.62,3.7-1.35,0-2.61-.33-3.47-.84l.56-1.71Z" />
        </g>
        <g class="cls-5">
          <path class="cls-1"
            d="m274.3,125.49v3.55h3.22v1.71h-3.22v6.67c0,1.53.43,2.4,1.69,2.4.59,0,1.02-.08,1.3-.15l.1,1.69c-.43.18-1.12.31-1.99.31-1.05,0-1.89-.33-2.43-.95-.64-.66-.87-1.76-.87-3.22v-6.74h-1.92v-1.71h1.92v-2.96l2.2-.59Z" />
        </g>
        <g class="cls-5">
          <path class="cls-1"
            d="m282.58,135.63c.05,3.04,1.99,4.29,4.24,4.29,1.61,0,2.58-.28,3.42-.64l.38,1.61c-.79.36-2.15.77-4.11.77-3.81,0-6.08-2.5-6.08-6.23s2.2-6.67,5.8-6.67c4.04,0,5.11,3.55,5.11,5.82,0,.46-.05.82-.08,1.05h-8.68Zm6.59-1.61c.03-1.43-.59-3.65-3.12-3.65-2.27,0-3.27,2.09-3.45,3.65h6.56Z" />
          <path class="cls-1"
            d="m295.65,123.26h2.25v7.71h.05c.36-.64.92-1.2,1.61-1.58.66-.38,1.46-.64,2.3-.64,1.66,0,4.32,1.02,4.32,5.29v7.36h-2.25v-7.1c0-1.99-.74-3.68-2.86-3.68-1.46,0-2.61,1.02-3.01,2.25-.13.31-.15.64-.15,1.07v7.46h-2.25v-18.14Z" />
          <path class="cls-1"
            d="m312.61,135.63c.05,3.04,1.99,4.29,4.24,4.29,1.61,0,2.58-.28,3.42-.64l.38,1.61c-.79.36-2.15.77-4.11.77-3.81,0-6.08-2.5-6.08-6.23s2.2-6.67,5.8-6.67c4.04,0,5.11,3.55,5.11,5.82,0,.46-.05.82-.08,1.05h-8.68Zm6.59-1.61c.03-1.43-.59-3.65-3.12-3.65-2.27,0-3.27,2.09-3.45,3.65h6.56Z" />
          <path class="cls-1"
            d="m325.69,132.38c0-1.28-.03-2.32-.1-3.35h1.99l.13,2.04h.05c.61-1.17,2.04-2.32,4.09-2.32,1.71,0,4.37,1.02,4.37,5.26v7.38h-2.25v-7.13c0-1.99-.74-3.65-2.86-3.65-1.48,0-2.63,1.05-3.01,2.3-.1.28-.15.66-.15,1.05v7.43h-2.25v-9.02Z" />
          <path class="cls-1"
            d="m348.24,141.4c.05-.84.1-2.09.1-3.19v-14.94h2.22v7.77h.05c.79-1.38,2.22-2.27,4.21-2.27,3.07,0,5.24,2.55,5.21,6.31,0,4.42-2.78,6.62-5.54,6.62-1.79,0-3.22-.69-4.14-2.32h-.08l-.1,2.04h-1.94Zm2.32-4.96c0,.28.05.56.1.82.43,1.56,1.74,2.63,3.37,2.63,2.35,0,3.75-1.92,3.75-4.75,0-2.48-1.28-4.6-3.68-4.6-1.53,0-2.96,1.05-3.42,2.76-.05.26-.13.56-.13.92v2.22Z" />
          <path class="cls-1"
            d="m365.66,135.63c.05,3.04,1.99,4.29,4.24,4.29,1.61,0,2.58-.28,3.42-.64l.38,1.61c-.79.36-2.15.77-4.11.77-3.81,0-6.08-2.5-6.08-6.23s2.2-6.67,5.8-6.67c4.04,0,5.11,3.55,5.11,5.82,0,.46-.05.82-.08,1.05h-8.68Zm6.59-1.61c.03-1.43-.59-3.65-3.12-3.65-2.27,0-3.27,2.09-3.45,3.65h6.56Z" />
          <path class="cls-1"
            d="m381.24,125.56c.03.77-.54,1.38-1.43,1.38-.79,0-1.35-.61-1.35-1.38s.59-1.4,1.41-1.4,1.38.61,1.38,1.4Zm-2.5,15.84v-12.36h2.25v12.36h-2.25Z" />
          <path class="cls-1"
            d="m386.24,132.38c0-1.28-.03-2.32-.1-3.35h1.97l.1,1.99h.08c.69-1.18,1.84-2.27,3.88-2.27,1.69,0,2.96,1.02,3.5,2.48h.05c.38-.69.87-1.23,1.38-1.61.74-.56,1.56-.87,2.73-.87,1.63,0,4.06,1.07,4.06,5.36v7.28h-2.2v-7c0-2.38-.87-3.81-2.68-3.81-1.28,0-2.27.95-2.66,2.04-.1.31-.18.72-.18,1.12v7.64h-2.2v-7.41c0-1.97-.87-3.4-2.58-3.4-1.4,0-2.43,1.12-2.78,2.25-.13.33-.18.71-.18,1.1v7.46h-2.2v-9.02Z" />
        </g>
        <g class="cls-5">
          <path class="cls-1"
            d="m428.18,140.63c-1,.36-2.96.95-5.29.95-2.61,0-4.75-.66-6.44-2.27-1.48-1.43-2.4-3.73-2.4-6.41.03-5.13,3.55-8.89,9.32-8.89,1.99,0,3.55.43,4.29.79l-.54,1.81c-.92-.41-2.07-.74-3.81-.74-4.19,0-6.92,2.61-6.92,6.92s2.63,6.95,6.64,6.95c1.46,0,2.45-.2,2.96-.46v-5.13h-3.5v-1.79h5.67v8.28Z" />
        </g>
        <g class="cls-5">
          <path class="cls-1"
            d="m434.31,135.63c.05,3.04,1.99,4.29,4.24,4.29,1.61,0,2.58-.28,3.42-.64l.38,1.61c-.79.36-2.15.77-4.11.77-3.81,0-6.08-2.5-6.08-6.23s2.2-6.67,5.8-6.67c4.04,0,5.11,3.55,5.11,5.82,0,.46-.05.82-.08,1.05h-8.68Zm6.59-1.61c.03-1.43-.59-3.65-3.12-3.65-2.27,0-3.27,2.09-3.45,3.65h6.56Z" />
          <path class="cls-1"
            d="m447.38,123.26h2.25v7.71h.05c.36-.64.92-1.2,1.61-1.58.66-.38,1.46-.64,2.3-.64,1.66,0,4.32,1.02,4.32,5.29v7.36h-2.25v-7.1c0-1.99-.74-3.68-2.86-3.68-1.46,0-2.61,1.02-3.01,2.25-.13.31-.15.64-.15,1.07v7.46h-2.25v-18.14Z" />
          <path class="cls-1"
            d="m464.34,135.63c.05,3.04,1.99,4.29,4.24,4.29,1.61,0,2.58-.28,3.42-.64l.38,1.61c-.79.36-2.15.77-4.11.77-3.81,0-6.08-2.5-6.08-6.23s2.2-6.67,5.8-6.67c4.04,0,5.11,3.55,5.11,5.82,0,.46-.05.82-.08,1.05h-8.68Zm6.59-1.61c.03-1.43-.59-3.65-3.12-3.65-2.27,0-3.27,2.09-3.45,3.65h6.57Z" />
          <path class="cls-1"
            d="m477.42,132.38c0-1.28-.03-2.32-.1-3.35h1.99l.13,2.04h.05c.61-1.17,2.04-2.32,4.09-2.32,1.71,0,4.37,1.02,4.37,5.26v7.38h-2.25v-7.13c0-1.99-.74-3.65-2.86-3.65-1.48,0-2.63,1.05-3.01,2.3-.1.28-.15.66-.15,1.05v7.43h-2.25v-9.02Z" />
        </g>
      </g>
    </g>
  </g>
</svg>